<?xml version="1.0" encoding="UTF-8" standalone="no"?>
<!-- Created with Inkscape (http://www.inkscape.org/) -->

<svg
   width="130.93079mm"
   height="105.63393mm"
   viewBox="0 0 130.93079 105.63393"
   version="1.1"
   id="svg5"
   xmlns="http://www.w3.org/2000/svg"
   xmlns:svg="http://www.w3.org/2000/svg">
  <defs
     id="defs2">
    <filter
       style="color-interpolation-filters:sRGB"
       id="filter6937"
       x="-0.016247079"
       y="-0.013365847"
       width="1.0324942"
       height="1.0267317">
      <feGaussianBlur
         stdDeviation="0.43189401"
         id="feGaussianBlur6939" />
    </filter>
    <filter
       style="color-interpolation-filters:sRGB"
       id="filter6941"
       x="-0.012221194"
       y="-0.0082045374"
       width="1.0244424"
       height="1.0164092">
      <feGaussianBlur
         stdDeviation="0.32484906"
         id="feGaussianBlur6943" />
    </filter>
  </defs>
  <g
     id="layer2"
     style="display:inline"
     transform="translate(-39.103311,-73.629713)">
    <g
       id="g6953"
       transform="translate(-404.11152,-6.7351921)">
      <path
         style="fill:#ff9955;fill-opacity:1;stroke:none;stroke-width:0.264583px;stroke-linecap:butt;stroke-linejoin:miter;stroke-opacity:1"
         d="m 443.23308,86.180054 8.18065,-5.81515 10.25044,2.13551 0.004,32.407166 29.48688,6.36255 -0.22186,-25.012296 8.17428,-5.78865 10.2933,2.21997 -0.002,79.061736 -8.19138,5.76799 -9.08551,-40.15382 -30.42133,-6.76483 -0.0295,30.99511 -8.17524,5.76168 c -0.0642,0.0452 -5.52511,-72.301206 -10.26247,-81.176966 z"
         id="path3996-6" />
      <path
         style="opacity:1;fill:#aa4400;fill-opacity:1;stroke:none;stroke-width:0.264583px;stroke-linecap:butt;stroke-linejoin:miter;stroke-opacity:1;filter:url(#filter6941)"
         d="m 453.0776,88.566794 8.60936,-6.07492 0.13142,32.328316 -8.60421,5.92193 1.17416,3.91647 c 14.74857,2.10283 35.95169,5.45839 44.22334,6.35215 l 2.2138,-32.368316 8.57369,-5.87546 -10e-6,78.980966 -8.18762,5.76914 c -0.57213,-0.23552 -2.34087,-23.02783 -2.81128,-39.42669 l -36.83649,-11.28669 0.11035,34.78474 -8.17377,5.77673 -1.91932,-42.85597 -5.97577,-36.749966 z"
         id="path4007-47" />
      <path
         d="m 443.21483,86.078134 10.29512,2.19273 v 32.418576 l 37.40901,7.96764 V 96.238504 l 10.29512,2.19273 V 177.51773 L 490.91896,175.325 v -37.66276 l -37.40901,-7.96764 v 37.66276 l -10.29512,-2.19273 z"
         style="font-size:50.8px;line-height:1.25;font-family:sans-serif;-inkscape-font-specification:sans-serif;fill:#ff6600;fill-opacity:1;stroke-width:0.554229"
         id="path3530-6" />
    </g>
    <g
       id="g6948"
       transform="translate(-415.41206,-7.4537293)">
      <path
         id="path4011-0"
         style="fill:#ff9955;fill-opacity:1;stroke:none;stroke-width:0.264583px;stroke-linecap:butt;stroke-linejoin:miter;stroke-opacity:1"
         d="m 523.28119,94.985484 -7.78146,5.250736 3.67756,74.52606 c 0,0 31.67133,7.0966 32.197,7.62227 0.52566,0.52566 7.96275,3.95055 7.96275,3.95055 7.69291,-2.01896 25.40364,-8.16304 25.08556,-21.5352 -0.19729,-12.78073 -8.13525,-21.65674 -17.02146,-26.447 5.81502,-2.64168 9.62821,-8.74967 9.63327,-14.15532 0.005,-5.40566 -0.50323,-7.43474 -4.84969,-12.74088 -4.34645,-5.30613 -13.64602,-8.53615 -16.07945,-9.3675 -2.43343,-0.83135 -32.82408,-7.103716 -32.82408,-7.103716 z m 19.0275,17.284226 14.17123,6.69055 c 0,0 3.16344,5.90332 3.0577,7.45743 -0.1803,2.64973 -2.8818,5.31078 -6.12418,5.11338 l -18.81769,-3.47886 0.32528,-17.03685 z m -6.923,31.17628 13.00945,2.50901 17.47026,10.68617 c 0,0 1.77744,6.68942 0.26716,9.47074 -2.95549,5.4428 -4.46435,6.0886 -10.1971,5.39551 l -21.01495,-4.79127 c -0.0211,-0.42668 0.49749,-22.94881 0.46518,-23.27016 z" />
      <path
         style="opacity:1;fill:#aa4400;fill-opacity:1;stroke:none;stroke-width:0.264583px;stroke-linecap:butt;stroke-linejoin:miter;stroke-opacity:1;filter:url(#filter6937)"
         d="m 534.73532,127.98591 0.20005,-19.29547 -13.20956,-1.29935 0.18585,36.98419 -1.30095,33.54597 14.68216,1.20802 28.73708,5.81363 c 10.32327,-3.64662 19.70277,-8.94856 20.37965,-19.03541 l -12.83507,8.81005 -1.15597,-17.05397 -15.4224,-13.60806 c 5.68627,-2.28297 22.4982,-7.19407 22.0323,-20.80458 l -9.17737,6.42682 c -5.53374,6.33963 -10.17659,6.80128 -19.36286,11.2593 7.82535,8.70965 15.83734,11.80652 16.43067,24.13219 -0.94989,15.09957 -23.12547,17.62756 -40.18762,8.31462 l 10.22537,-6.90874 0.3362,-22.56446 -9.66421,-9.57129 z"
         id="path4019-8" />
      <path
         id="path3410-0-3-9"
         style="fill:#ff6600;fill-opacity:1;stroke:none;stroke-width:0.566206px;stroke-linecap:butt;stroke-linejoin:miter;stroke-opacity:1"
         d="m 542.11686,105.85263 c -1.08479,-0.23539 -2.20771,-0.45312 -3.37141,-0.65269 l -23.24848,-4.95272 v 79.48727 l 23.38836,4.84155 c 43.83192,11.75655 45.59393,-28.11336 19.18651,-41.51505 13.84378,-5.24862 17.67378,-29.89583 -15.95498,-37.20827 z m -16.11687,5.29399 18.51795,3.94495 c 17.70521,4.30305 15.57644,26.05755 -0.29739,22.99881 l -18.41882,-3.72401 z m 0.0441,32.25643 18.51795,3.94495 c 31.07394,7.25088 20.42889,35.17602 -0.19822,29.10802 L 525.945,172.73201 Z" />
    </g>
  </g>
</svg>
